<svg xmlns="http://www.w3.org/2000/svg" width="514pt" height="456" viewBox="0 0 514 342"><g class="graph" transform="translate(4 338)"><path fill="#fff" d="M-4 4v-342h514V4H-4z"/><g class="node"><path fill="#94d4ae" d="M286.5-303v-27h200v27h-200z"/><path fill="none" stroke="#000" d="M286.5-303v-27h200v27h-200z"/><text x="332.5" y="-312.8" font-family="Monospace" font-size="14">bluey: Pupper</text><path fill="none" stroke="#000" d="M286.5-276v-27h100v27h-100z"/><text x="292.5" y="-285.8" font-family="Monospace" font-size="14">age: u32</text><path fill="none" stroke="#000" d="M386.5-276v-27h100v27h-100z"/><text x="471.5" y="-285.8" font-family="Monospace" font-size="14">7</text><path fill="none" stroke="#000" d="M286.5-222v-54h100v54h-100z"/><text x="292.5" y="-245.3" font-family="Monospace" font-size="14">name: &amp;str</text><path fill="none" stroke="#000" d="M386.5-249v-27h100v27h-100z"/><text x="397.5" y="-258.8" font-family="Monospace" font-size="14">0xB0003000</text><path fill="none" stroke="#000" d="M386.5-222v-27h100v27h-100z"/><text x="471.5" y="-231.8" font-family="Monospace" font-size="14">5</text></g><g class="node"><path fill="#e8da89" d="M8-255.5v-27h215v27H8z"/><path fill="none" stroke="#000" d="M8-255.5v-27h215v27H8z"/><text x="32.5" y="-265.3" font-family="Monospace" font-size="14">&amp;bluey as &amp;dyn Doggo</text><path fill="none" stroke="#000" d="M8-228.5v-27h120v27H8z"/><text x="14" y="-238.3" font-family="Monospace" font-size="14">data: &amp;???</text><path fill="none" stroke="#000" d="M128-228.5v-27h95v27h-95z"/><text x="134" y="-238.3" font-family="Monospace" font-size="14">0x7ffff000</text><path fill="none" stroke="#000" d="M8-201.5v-27h120v27H8z"/><text x="14" y="-211.3" font-family="Monospace" font-size="14">meta: &amp;Vtable</text><path fill="none" stroke="#000" d="M128-201.5v-27h95v27h-95z"/><text x="134" y="-211.3" font-family="Monospace" font-size="14">0xB0001020</text></g><g class="edge"><path fill="none" stroke="#000" d="M224.5-242c34.15 0 25.44-48.39 50.22-58.97"/><path stroke="#000" d="M274.03-304.59 284.5-303l-9.18 5.29-1.29-6.88z"/></g><g class="node"><path fill="#8996e8" d="M275-154v-42h223v42H275z"/><path fill="none" stroke="#000" d="M275-154v-42h223v42H275z"/><text x="299.5" y="-178.8" font-family="Monospace" font-size="14">&lt;Pupper as dyn Doggo&gt;</text><text x="361.5" y="-163.8" font-family="Monospace" font-size="14">vtable</text><path fill="none" stroke="#000" d="M275-127v-27h128v27H275z"/><text x="281" y="-136.8" font-family="Monospace" font-size="14">size: usize</text><path fill="none" stroke="#000" d="M403-127v-27h95v27h-95z"/><text x="475" y="-136.8" font-family="Monospace" font-size="14">12</text><path fill="none" stroke="#000" d="M275-100v-27h128v27H275z"/><text x="281" y="-109.8" font-family="Monospace" font-size="14">align: usize</text><path fill="none" stroke="#000" d="M403-100v-27h95v27h-95z"/><text x="483" y="-109.8" font-family="Monospace" font-size="14">4</text><path fill="none" stroke="#000" d="M275-58v-42h128v42H275z"/><text x="281" y="-82.8" font-family="Monospace" font-size="14">drop_in_place:</text><text x="297.5" y="-67.8" font-family="Monospace" font-size="14">Option&lt;fn&gt;</text><path fill="none" stroke="#000" d="M403-58v-42h95v42h-95z"/><text x="409" y="-82.8" font-family="Monospace" font-size="14">0x00000000</text><text x="433.5" y="-67.8" font-family="Monospace" font-size="14">None</text><path fill="none" stroke="#000" d="M275-31v-27h128v27H275z"/><text x="281" y="-40.8" font-family="Monospace" font-size="14">wag: fn</text><path fill="none" stroke="#000" d="M403-31v-27h95v27h-95z"/><text x="409" y="-40.8" font-family="Monospace" font-size="14">0x80001000</text><path fill="none" stroke="#000" d="M275-4v-27h128v27H275z"/><text x="281" y="-13.8" font-family="Monospace" font-size="14">bark: fn</text><path fill="none" stroke="#000" d="M403-4v-27h95v27h-95z"/><text x="409" y="-13.8" font-family="Monospace" font-size="14">0x80001020</text></g><g class="edge"><path fill="none" stroke="#000" d="M224.5-215c30.43 0 18.5 46.7 38.34 58.38"/><path stroke="#000" d="m263.62-159.79 8.88 5.79-10.55 1.01 1.67-6.8z"/></g></g></svg>