<?xml version="1.0" encoding="UTF-8" standalone="no"?>
<!DOCTYPE svg PUBLIC "-//W3C//DTD SVG 1.1//EN"
 "http://www.w3.org/Graphics/SVG/1.1/DTD/svg11.dtd">
<!-- Generated by graphviz version 8.0.2 (20230410.1723)
 -->
<!-- Title: G Pages: 1 -->
<svg width="514pt" height="368pt"
 viewBox="0.00 0.00 514.00 368.00" xmlns="http://www.w3.org/2000/svg" xmlns:xlink="http://www.w3.org/1999/xlink">
<g id="page0,1_graph0" class="graph" transform="scale(1 1) rotate(0) translate(4 364)">
<title>G</title>
<polygon fill="white" stroke="none" points="-4,4 -4,-364 510,-364 510,4 -4,4"/>
<!-- woofer -->
<g id="node1" class="node">
<title>woofer</title>
<polygon fill="#94d4ae" stroke="none" points="286.5,-329 286.5,-356 486.5,-356 486.5,-329 286.5,-329"/>
<polygon fill="none" stroke="black" points="286.5,-329 286.5,-356 486.5,-356 486.5,-329 286.5,-329"/>
<text text-anchor="start" x="320" y="-338.8" font-family="Monospace" font-size="14.00">reginald: Woofer</text>
<polygon fill="none" stroke="black" points="286.5,-302 286.5,-329 431.5,-329 431.5,-302 286.5,-302"/>
<text text-anchor="start" x="292.5" y="-311.8" font-family="Monospace" font-size="14.00">woof_freq: u16</text>
<polygon fill="none" stroke="black" points="431.5,-302 431.5,-329 486.5,-329 486.5,-302 431.5,-302"/>
<text text-anchor="start" x="455.5" y="-311.8" font-family="Monospace" font-size="14.00">343</text>
</g>
<!-- woofer2 -->
<g id="node2" class="node">
<title>woofer2</title>
<polygon fill="#94d4ae" stroke="none" points="286.5,-31 286.5,-58 486.5,-58 486.5,-31 286.5,-31"/>
<polygon fill="none" stroke="black" points="286.5,-31 286.5,-58 486.5,-58 486.5,-31 286.5,-31"/>
<text text-anchor="start" x="324.5" y="-40.8" font-family="Monospace" font-size="14.00">chester: Woofer</text>
<polygon fill="none" stroke="black" points="286.5,-4 286.5,-31 431.5,-31 431.5,-4 286.5,-4"/>
<text text-anchor="start" x="292.5" y="-13.8" font-family="Monospace" font-size="14.00">woof_freq: u16</text>
<polygon fill="none" stroke="black" points="431.5,-4 431.5,-31 486.5,-31 486.5,-4 431.5,-4"/>
<text text-anchor="start" x="455.5" y="-13.8" font-family="Monospace" font-size="14.00">200</text>
</g>
<!-- woofer_ref -->
<g id="node3" class="node">
<title>woofer_ref</title>
<polygon fill="#e8da89" stroke="none" points="8,-308.5 8,-335.5 223,-335.5 223,-308.5 8,-308.5"/>
<polygon fill="none" stroke="black" points="8,-308.5 8,-335.5 223,-335.5 223,-308.5 8,-308.5"/>
<text text-anchor="start" x="20.5" y="-318.3" font-family="Monospace" font-size="14.00">&amp;reginald as &amp;dyn Doggo</text>
<polygon fill="none" stroke="black" points="8,-281.5 8,-308.5 128,-308.5 128,-281.5 8,-281.5"/>
<text text-anchor="start" x="14" y="-291.3" font-family="Monospace" font-size="14.00">data: &amp;???</text>
<polygon fill="none" stroke="black" points="128,-281.5 128,-308.5 223,-308.5 223,-281.5 128,-281.5"/>
<text text-anchor="start" x="134" y="-291.3" font-family="Monospace" font-size="14.00">0x7ffff010</text>
<polygon fill="none" stroke="black" points="8,-254.5 8,-281.5 128,-281.5 128,-254.5 8,-254.5"/>
<text text-anchor="start" x="14" y="-264.3" font-family="Monospace" font-size="14.00">meta: &amp;Vtable</text>
<polygon fill="none" stroke="black" points="128,-254.5 128,-281.5 223,-281.5 223,-254.5 128,-254.5"/>
<text text-anchor="start" x="134" y="-264.3" font-family="Monospace" font-size="14.00">0xB0001034</text>
</g>
<!-- woofer_ref&#45;&gt;woofer -->
<g id="edge1" class="edge">
<title>woofer_ref:data&#45;&gt;woofer:head</title>
<path fill="none" stroke="black" d="M224.5,-295C251.42,-295 254.18,-320.57 274.68,-327.36"/>
<polygon fill="black" stroke="black" points="274.09,-330.96 284.5,-329 275.14,-324.04 274.09,-330.96"/>
</g>
<!-- woofer_vtable -->
<g id="node5" class="node">
<title>woofer_vtable</title>
<polygon fill="#8996e8" stroke="none" points="275,-234 275,-276 498,-276 498,-234 275,-234"/>
<polygon fill="none" stroke="black" points="275,-234 275,-276 498,-276 498,-234 275,-234"/>
<text text-anchor="start" x="299.5" y="-258.8" font-family="Monospace" font-size="14.00">&lt;Woofer as dyn Doggo&gt;</text>
<text text-anchor="start" x="361.5" y="-243.8" font-family="Monospace" font-size="14.00">vtable</text>
<polygon fill="none" stroke="black" points="275,-207 275,-234 403,-234 403,-207 275,-207"/>
<text text-anchor="start" x="281" y="-216.8" font-family="Monospace" font-size="14.00">size: usize</text>
<polygon fill="none" stroke="black" points="403,-207 403,-234 498,-234 498,-207 403,-207"/>
<text text-anchor="start" x="483" y="-216.8" font-family="Monospace" font-size="14.00">2</text>
<polygon fill="none" stroke="black" points="275,-180 275,-207 403,-207 403,-180 275,-180"/>
<text text-anchor="start" x="281" y="-189.8" font-family="Monospace" font-size="14.00">align: usize</text>
<polygon fill="none" stroke="black" points="403,-180 403,-207 498,-207 498,-180 403,-180"/>
<text text-anchor="start" x="483" y="-189.8" font-family="Monospace" font-size="14.00">2</text>
<polygon fill="none" stroke="black" points="275,-138 275,-180 403,-180 403,-138 275,-138"/>
<text text-anchor="start" x="281" y="-162.8" font-family="Monospace" font-size="14.00">drop_in_place:</text>
<text text-anchor="start" x="297.5" y="-147.8" font-family="Monospace" font-size="14.00">Option&lt;fn&gt;</text>
<polygon fill="none" stroke="black" points="403,-138 403,-180 498,-180 498,-138 403,-138"/>
<text text-anchor="start" x="409" y="-162.8" font-family="Monospace" font-size="14.00">0x00000000</text>
<text text-anchor="start" x="433.5" y="-147.8" font-family="Monospace" font-size="14.00">None</text>
<polygon fill="none" stroke="black" points="275,-111 275,-138 403,-138 403,-111 275,-111"/>
<text text-anchor="start" x="281" y="-120.8" font-family="Monospace" font-size="14.00">wag: fn</text>
<polygon fill="none" stroke="black" points="403,-111 403,-138 498,-138 498,-111 403,-111"/>
<text text-anchor="start" x="409" y="-120.8" font-family="Monospace" font-size="14.00">0x80002080</text>
<polygon fill="none" stroke="black" points="275,-84 275,-111 403,-111 403,-84 275,-84"/>
<text text-anchor="start" x="281" y="-93.8" font-family="Monospace" font-size="14.00">bark: fn</text>
<polygon fill="none" stroke="black" points="403,-84 403,-111 498,-111 498,-84 403,-84"/>
<text text-anchor="start" x="409" y="-93.8" font-family="Monospace" font-size="14.00">0x80002020</text>
</g>
<!-- woofer_ref&#45;&gt;woofer_vtable -->
<g id="edge3" class="edge">
<title>woofer_ref:meta&#45;&gt;woofer_vtable:head</title>
<path fill="none" stroke="black" d="M224.5,-268C246.87,-268 247.5,-243.79 263.08,-236.23"/>
<polygon fill="black" stroke="black" points="263.45,-239.52 272.5,-234 261.99,-232.67 263.45,-239.52"/>
</g>
<!-- woofer2_ref -->
<g id="node4" class="node">
<title>woofer2_ref</title>
<polygon fill="#e8da89" stroke="none" points="8,-140.5 8,-167.5 223,-167.5 223,-140.5 8,-140.5"/>
<polygon fill="none" stroke="black" points="8,-140.5 8,-167.5 223,-167.5 223,-140.5 8,-140.5"/>
<text text-anchor="start" x="24.5" y="-150.3" font-family="Monospace" font-size="14.00">&amp;chester as &amp;dyn Doggo</text>
<polygon fill="none" stroke="black" points="8,-113.5 8,-140.5 128,-140.5 128,-113.5 8,-113.5"/>
<text text-anchor="start" x="14" y="-123.3" font-family="Monospace" font-size="14.00">data: &amp;???</text>
<polygon fill="none" stroke="black" points="128,-113.5 128,-140.5 223,-140.5 223,-113.5 128,-113.5"/>
<text text-anchor="start" x="134" y="-123.3" font-family="Monospace" font-size="14.00">0x7ffff010</text>
<polygon fill="none" stroke="black" points="8,-86.5 8,-113.5 128,-113.5 128,-86.5 8,-86.5"/>
<text text-anchor="start" x="14" y="-96.3" font-family="Monospace" font-size="14.00">meta: &amp;Vtable</text>
<polygon fill="none" stroke="black" points="128,-86.5 128,-113.5 223,-113.5 223,-86.5 128,-86.5"/>
<text text-anchor="start" x="134" y="-96.3" font-family="Monospace" font-size="14.00">0xB0001034</text>
</g>
<!-- woofer2_ref&#45;&gt;woofer2 -->
<g id="edge2" class="edge">
<title>woofer2_ref:data&#45;&gt;woofer2:head</title>
<path fill="none" stroke="black" d="M224.5,-127C270.9,-127 240.92,-46.1 274.79,-32.83"/>
<polygon fill="black" stroke="black" points="275.23,-36.14 284.5,-31 274.05,-29.24 275.23,-36.14"/>
</g>
<!-- woofer2_ref&#45;&gt;woofer_vtable -->
<g id="edge4" class="edge">
<title>woofer2_ref:meta&#45;&gt;woofer_vtable:head</title>
<path fill="none" stroke="black" d="M224.5,-100C283.7,-100 219.8,-216.79 262.65,-232.31"/>
<polygon fill="black" stroke="black" points="262.08,-235.91 272.5,-234 263.16,-229 262.08,-235.91"/>
</g>
</g>
</svg>
