<svg xmlns="http://www.w3.org/2000/svg" width="514pt" height="368pt" viewBox="0 0 514 368"><g class="graph" transform="translate(4 364)"><path fill="#fff" d="M-4 4v-368h514V4H-4z"/><g class="node"><path fill="#94d4ae" d="M286.5-329v-27h200v27h-200z"/><path fill="none" stroke="#000" d="M286.5-329v-27h200v27h-200z"/><text x="320" y="-338.8" font-family="Monospace" font-size="14">reginald: Woofer</text><path fill="none" stroke="#000" d="M286.5-302v-27h145v27h-145z"/><text x="292.5" y="-311.8" font-family="Monospace" font-size="14">woof_freq: u16</text><path fill="none" stroke="#000" d="M431.5-302v-27h55v27h-55z"/><text x="455.5" y="-311.8" font-family="Monospace" font-size="14">343</text></g><g class="node"><path fill="#94d4ae" d="M286.5-31v-27h200v27h-200z"/><path fill="none" stroke="#000" d="M286.5-31v-27h200v27h-200z"/><text x="324.5" y="-40.8" font-family="Monospace" font-size="14">chester: Woofer</text><path fill="none" stroke="#000" d="M286.5-4v-27h145v27h-145z"/><text x="292.5" y="-13.8" font-family="Monospace" font-size="14">woof_freq: u16</text><path fill="none" stroke="#000" d="M431.5-4v-27h55v27h-55z"/><text x="455.5" y="-13.8" font-family="Monospace" font-size="14">200</text></g><g class="node"><path fill="#e8da89" d="M8-308.5v-27h215v27H8z"/><path fill="none" stroke="#000" d="M8-308.5v-27h215v27H8z"/><text x="20.5" y="-318.3" font-family="Monospace" font-size="14">&amp;reginald as &amp;dyn Doggo</text><path fill="none" stroke="#000" d="M8-281.5v-27h120v27H8z"/><text x="14" y="-291.3" font-family="Monospace" font-size="14">data: &amp;???</text><path fill="none" stroke="#000" d="M128-281.5v-27h95v27h-95z"/><text x="134" y="-291.3" font-family="Monospace" font-size="14">0x7ffff010</text><path fill="none" stroke="#000" d="M8-254.5v-27h120v27H8z"/><text x="14" y="-264.3" font-family="Monospace" font-size="14">meta: &amp;Vtable</text><path fill="none" stroke="#000" d="M128-254.5v-27h95v27h-95z"/><text x="134" y="-264.3" font-family="Monospace" font-size="14">0xB0001034</text></g><g class="edge"><path fill="none" stroke="#000" d="M224.5-295c26.92 0 29.68-25.57 50.18-32.36"/><path stroke="#000" d="M274.09-330.96 284.5-329l-9.36 4.96-1.05-6.92z"/></g><g class="node"><path fill="#8996e8" d="M275-234v-42h223v42H275z"/><path fill="none" stroke="#000" d="M275-234v-42h223v42H275z"/><text x="299.5" y="-258.8" font-family="Monospace" font-size="14">&lt;Woofer as dyn Doggo&gt;</text><text x="361.5" y="-243.8" font-family="Monospace" font-size="14">vtable</text><path fill="none" stroke="#000" d="M275-207v-27h128v27H275z"/><text x="281" y="-216.8" font-family="Monospace" font-size="14">size: usize</text><path fill="none" stroke="#000" d="M403-207v-27h95v27h-95z"/><text x="483" y="-216.8" font-family="Monospace" font-size="14">2</text><path fill="none" stroke="#000" d="M275-180v-27h128v27H275z"/><text x="281" y="-189.8" font-family="Monospace" font-size="14">align: usize</text><path fill="none" stroke="#000" d="M403-180v-27h95v27h-95z"/><text x="483" y="-189.8" font-family="Monospace" font-size="14">2</text><path fill="none" stroke="#000" d="M275-138v-42h128v42H275z"/><text x="281" y="-162.8" font-family="Monospace" font-size="14">drop_in_place:</text><text x="297.5" y="-147.8" font-family="Monospace" font-size="14">Option&lt;fn&gt;</text><path fill="none" stroke="#000" d="M403-138v-42h95v42h-95z"/><text x="409" y="-162.8" font-family="Monospace" font-size="14">0x00000000</text><text x="433.5" y="-147.8" font-family="Monospace" font-size="14">None</text><path fill="none" stroke="#000" d="M275-111v-27h128v27H275z"/><text x="281" y="-120.8" font-family="Monospace" font-size="14">wag: fn</text><path fill="none" stroke="#000" d="M403-111v-27h95v27h-95z"/><text x="409" y="-120.8" font-family="Monospace" font-size="14">0x80002080</text><path fill="none" stroke="#000" d="M275-84v-27h128v27H275z"/><text x="281" y="-93.8" font-family="Monospace" font-size="14">bark: fn</text><path fill="none" stroke="#000" d="M403-84v-27h95v27h-95z"/><text x="409" y="-93.8" font-family="Monospace" font-size="14">0x80002020</text></g><g class="edge"><path fill="none" stroke="#000" d="M224.5-268c22.37 0 23 24.21 38.58 31.77"/><path stroke="#000" d="m263.45-239.52 9.05 5.52-10.51 1.33 1.46-6.85z"/></g><g class="node"><path fill="#e8da89" d="M8-140.5v-27h215v27H8z"/><path fill="none" stroke="#000" d="M8-140.5v-27h215v27H8z"/><text x="24.5" y="-150.3" font-family="Monospace" font-size="14">&amp;chester as &amp;dyn Doggo</text><path fill="none" stroke="#000" d="M8-113.5v-27h120v27H8z"/><text x="14" y="-123.3" font-family="Monospace" font-size="14">data: &amp;???</text><path fill="none" stroke="#000" d="M128-113.5v-27h95v27h-95z"/><text x="134" y="-123.3" font-family="Monospace" font-size="14">0x7ffff010</text><path fill="none" stroke="#000" d="M8-86.5v-27h120v27H8z"/><text x="14" y="-96.3" font-family="Monospace" font-size="14">meta: &amp;Vtable</text><path fill="none" stroke="#000" d="M128-86.5v-27h95v27h-95z"/><text x="134" y="-96.3" font-family="Monospace" font-size="14">0xB0001034</text></g><g class="edge"><path fill="none" stroke="#000" d="M224.5-127c46.4 0 16.42 80.9 50.29 94.17"/><path stroke="#000" d="M275.23-36.14 284.5-31l-10.45 1.76 1.18-6.9z"/></g><g class="edge"><path fill="none" stroke="#000" d="M224.5-100c59.2 0-4.7-116.79 38.15-132.31"/><path stroke="#000" d="M262.08-235.91 272.5-234l-9.34 5-1.08-6.91z"/></g></g></svg>