<?xml version="1.0" encoding="UTF-8" standalone="no"?>
<!DOCTYPE svg PUBLIC "-//W3C//DTD SVG 1.1//EN"
 "http://www.w3.org/Graphics/SVG/1.1/DTD/svg11.dtd">
<!-- Generated by graphviz version 8.0.2 (20230410.1723)
 -->
<!-- Title: G Pages: 1 -->
<svg width="514pt" height="342pt"
 viewBox="0.00 0.00 514.00 342.00" xmlns="http://www.w3.org/2000/svg" xmlns:xlink="http://www.w3.org/1999/xlink">
<g id="graph0" class="graph" transform="scale(1 1) rotate(0) translate(4 338)">
<title>G</title>
<polygon fill="white" stroke="none" points="-4,4 -4,-338 510,-338 510,4 -4,4"/>
<!-- pupper -->
<g id="node1" class="node">
<title>pupper</title>
<polygon fill="#94d4ae" stroke="none" points="286.5,-303 286.5,-330 486.5,-330 486.5,-303 286.5,-303"/>
<polygon fill="none" stroke="black" points="286.5,-303 286.5,-330 486.5,-330 486.5,-303 286.5,-303"/>
<text text-anchor="start" x="332.5" y="-312.8" font-family="Monospace" font-size="14.00">bluey: Pupper</text>
<polygon fill="none" stroke="black" points="286.5,-276 286.5,-303 386.5,-303 386.5,-276 286.5,-276"/>
<text text-anchor="start" x="292.5" y="-285.8" font-family="Monospace" font-size="14.00">age: u32</text>
<polygon fill="none" stroke="black" points="386.5,-276 386.5,-303 486.5,-303 486.5,-276 386.5,-276"/>
<text text-anchor="start" x="471.5" y="-285.8" font-family="Monospace" font-size="14.00">7</text>
<polygon fill="none" stroke="black" points="286.5,-222 286.5,-276 386.5,-276 386.5,-222 286.5,-222"/>
<text text-anchor="start" x="292.5" y="-245.3" font-family="Monospace" font-size="14.00">name: &amp;str</text>
<polygon fill="none" stroke="black" points="386.5,-249 386.5,-276 486.5,-276 486.5,-249 386.5,-249"/>
<text text-anchor="start" x="397.5" y="-258.8" font-family="Monospace" font-size="14.00">0xB0003000</text>
<polygon fill="none" stroke="black" points="386.5,-222 386.5,-249 486.5,-249 486.5,-222 386.5,-222"/>
<text text-anchor="start" x="471.5" y="-231.8" font-family="Monospace" font-size="14.00">5</text>
</g>
<!-- pupper_ref -->
<g id="node2" class="node">
<title>pupper_ref</title>
<polygon fill="#e8da89" stroke="none" points="8,-255.5 8,-282.5 223,-282.5 223,-255.5 8,-255.5"/>
<polygon fill="none" stroke="black" points="8,-255.5 8,-282.5 223,-282.5 223,-255.5 8,-255.5"/>
<text text-anchor="start" x="32.5" y="-265.3" font-family="Monospace" font-size="14.00">&amp;bluey as &amp;dyn Doggo</text>
<polygon fill="none" stroke="black" points="8,-228.5 8,-255.5 128,-255.5 128,-228.5 8,-228.5"/>
<text text-anchor="start" x="14" y="-238.3" font-family="Monospace" font-size="14.00">data: &amp;???</text>
<polygon fill="none" stroke="black" points="128,-228.5 128,-255.5 223,-255.5 223,-228.5 128,-228.5"/>
<text text-anchor="start" x="134" y="-238.3" font-family="Monospace" font-size="14.00">0x7ffff000</text>
<polygon fill="none" stroke="black" points="8,-201.5 8,-228.5 128,-228.5 128,-201.5 8,-201.5"/>
<text text-anchor="start" x="14" y="-211.3" font-family="Monospace" font-size="14.00">meta: &amp;Vtable</text>
<polygon fill="none" stroke="black" points="128,-201.5 128,-228.5 223,-228.5 223,-201.5 128,-201.5"/>
<text text-anchor="start" x="134" y="-211.3" font-family="Monospace" font-size="14.00">0xB0001020</text>
</g>
<!-- pupper_ref&#45;&gt;pupper -->
<g id="edge1" class="edge">
<title>pupper_ref:data&#45;&gt;pupper:head</title>
<path fill="none" stroke="black" d="M224.5,-242C258.65,-242 249.94,-290.39 274.72,-300.97"/>
<polygon fill="black" stroke="black" points="274.03,-304.59 284.5,-303 275.32,-297.71 274.03,-304.59"/>
</g>
<!-- pupper_vtable -->
<g id="node3" class="node">
<title>pupper_vtable</title>
<polygon fill="#8996e8" stroke="none" points="275,-154 275,-196 498,-196 498,-154 275,-154"/>
<polygon fill="none" stroke="black" points="275,-154 275,-196 498,-196 498,-154 275,-154"/>
<text text-anchor="start" x="299.5" y="-178.8" font-family="Monospace" font-size="14.00">&lt;Pupper as dyn Doggo&gt;</text>
<text text-anchor="start" x="361.5" y="-163.8" font-family="Monospace" font-size="14.00">vtable</text>
<polygon fill="none" stroke="black" points="275,-127 275,-154 403,-154 403,-127 275,-127"/>
<text text-anchor="start" x="281" y="-136.8" font-family="Monospace" font-size="14.00">size: usize</text>
<polygon fill="none" stroke="black" points="403,-127 403,-154 498,-154 498,-127 403,-127"/>
<text text-anchor="start" x="475" y="-136.8" font-family="Monospace" font-size="14.00">12</text>
<polygon fill="none" stroke="black" points="275,-100 275,-127 403,-127 403,-100 275,-100"/>
<text text-anchor="start" x="281" y="-109.8" font-family="Monospace" font-size="14.00">align: usize</text>
<polygon fill="none" stroke="black" points="403,-100 403,-127 498,-127 498,-100 403,-100"/>
<text text-anchor="start" x="483" y="-109.8" font-family="Monospace" font-size="14.00">4</text>
<polygon fill="none" stroke="black" points="275,-58 275,-100 403,-100 403,-58 275,-58"/>
<text text-anchor="start" x="281" y="-82.8" font-family="Monospace" font-size="14.00">drop_in_place:</text>
<text text-anchor="start" x="297.5" y="-67.8" font-family="Monospace" font-size="14.00">Option&lt;fn&gt;</text>
<polygon fill="none" stroke="black" points="403,-58 403,-100 498,-100 498,-58 403,-58"/>
<text text-anchor="start" x="409" y="-82.8" font-family="Monospace" font-size="14.00">0x00000000</text>
<text text-anchor="start" x="433.5" y="-67.8" font-family="Monospace" font-size="14.00">None</text>
<polygon fill="none" stroke="black" points="275,-31 275,-58 403,-58 403,-31 275,-31"/>
<text text-anchor="start" x="281" y="-40.8" font-family="Monospace" font-size="14.00">wag: fn</text>
<polygon fill="none" stroke="black" points="403,-31 403,-58 498,-58 498,-31 403,-31"/>
<text text-anchor="start" x="409" y="-40.8" font-family="Monospace" font-size="14.00">0x80001000</text>
<polygon fill="none" stroke="black" points="275,-4 275,-31 403,-31 403,-4 275,-4"/>
<text text-anchor="start" x="281" y="-13.8" font-family="Monospace" font-size="14.00">bark: fn</text>
<polygon fill="none" stroke="black" points="403,-4 403,-31 498,-31 498,-4 403,-4"/>
<text text-anchor="start" x="409" y="-13.8" font-family="Monospace" font-size="14.00">0x80001020</text>
</g>
<!-- pupper_ref&#45;&gt;pupper_vtable -->
<g id="edge2" class="edge">
<title>pupper_ref:meta&#45;&gt;pupper_vtable:head</title>
<path fill="none" stroke="black" d="M224.5,-215C254.93,-215 243,-168.3 262.84,-156.62"/>
<polygon fill="black" stroke="black" points="263.62,-159.79 272.5,-154 261.95,-152.99 263.62,-159.79"/>
</g>
</g>
</svg>
