<svg xmlns="http://www.w3.org/2000/svg" width="491pt" height="535pt" viewBox="0 0 491 535"><g class="graph" transform="translate(4 531)"><path fill="#fff" d="M-4 4v-535h491V4H-4z"/><g class="node"><path fill="#94d4ae" d="M275-240v-27h200v27H275z"/><path fill="none" stroke="#000" d="M275-240v-27h200v27H275z"/><text x="308.5" y="-249.8" font-family="Monospace" font-size="14">reginald: Woofer</text><path fill="none" stroke="#000" d="M275-213v-27h145v27H275z"/><text x="281" y="-222.8" font-family="Monospace" font-size="14">woof_freq: u16</text><path fill="none" stroke="#000" d="M420-213v-27h55v27h-55z"/><text x="444" y="-222.8" font-family="Monospace" font-size="14">343</text></g><g class="node"><path fill="#94d4ae" d="M275-38v-27h200v27H275z"/><path fill="none" stroke="#000" d="M275-38v-27h200v27H275z"/><text x="313" y="-47.8" font-family="Monospace" font-size="14">chester: Woofer</text><path fill="none" stroke="#000" d="M275-11v-27h145v27H275z"/><text x="281" y="-20.8" font-family="Monospace" font-size="14">woof_freq: u16</text><path fill="none" stroke="#000" d="M420-11v-27h55v27h-55z"/><text x="444" y="-20.8" font-family="Monospace" font-size="14">200</text></g><g class="node"><path fill="#94d4ae" d="M275-496v-27h200v27H275z"/><path fill="none" stroke="#000" d="M275-496v-27h200v27H275z"/><text x="321" y="-505.8" font-family="Monospace" font-size="14">bluey: Pupper</text><path fill="none" stroke="#000" d="M275-469v-27h100v27H275z"/><text x="281" y="-478.8" font-family="Monospace" font-size="14">age: u32</text><path fill="none" stroke="#000" d="M375-469v-27h100v27H375z"/><text x="460" y="-478.8" font-family="Monospace" font-size="14">7</text><path fill="none" stroke="#000" d="M275-415v-54h100v54H275z"/><text x="281" y="-438.3" font-family="Monospace" font-size="14">name: &amp;str</text><path fill="none" stroke="#000" d="M375-442v-27h100v27H375z"/><text x="386" y="-451.8" font-family="Monospace" font-size="14">0xB0003000</text><path fill="none" stroke="#000" d="M375-415v-27h100v27H375z"/><text x="460" y="-424.8" font-family="Monospace" font-size="14">5</text></g><g class="node"><path fill="#e8da89" d="M8-449v-42h215v42H8z"/><path fill="none" stroke="#000" d="M8-449v-42h215v42H8z"/><text x="49" y="-473.8" font-family="Monospace" font-size="14">Ref::&lt;dyn Doggo&gt;</text><text x="61.5" y="-458.8" font-family="Monospace" font-size="14">::new(&amp;bluey)</text><path fill="none" stroke="#000" d="M8-422v-27h120v27H8z"/><text x="14" y="-431.8" font-family="Monospace" font-size="14">data: &amp;???</text><path fill="none" stroke="#000" d="M128-422v-27h95v27h-95z"/><text x="134" y="-431.8" font-family="Monospace" font-size="14">0x7ffff000</text><path fill="none" stroke="#000" d="M8-395v-27h120v27H8z"/><text x="14" y="-404.8" font-family="Monospace" font-size="14">meta: &amp;Vtable</text><path fill="none" stroke="#000" d="M128-395v-27h95v27h-95z"/><text x="134" y="-404.8" font-family="Monospace" font-size="14">0xB0001020</text></g><g class="edge"><path fill="none" stroke="#000" d="M224.5-435c30.69 0 18.7-47.12 39.05-58.53"/><path stroke="#000" d="M262.46-497.11 273-496l-8.93 5.7-1.61-6.81z"/></g><g class="node"><path fill="#8996e8" d="M275-347v-42h200v42H275z"/><path fill="none" stroke="#000" d="M275-347v-42h200v42H275z"/><text x="288" y="-371.8" font-family="Monospace" font-size="14">&lt;Pupper as dyn Doggo&gt;</text><text x="317" y="-356.8" font-family="Monospace" font-size="14">tinydyn vtable</text><path fill="none" stroke="#000" d="M275-320v-27h92v27h-92z"/><text x="281" y="-329.8" font-family="Monospace" font-size="14">wag: fn</text><path fill="none" stroke="#000" d="M367-320v-27h108v27H367z"/><text x="386" y="-329.8" font-family="Monospace" font-size="14">0x80001000</text><path fill="none" stroke="#000" d="M275-293v-27h92v27h-92z"/><text x="281" y="-302.8" font-family="Monospace" font-size="14">bark: fn</text><path fill="none" stroke="#000" d="M367-293v-27h108v27H367z"/><text x="386" y="-302.8" font-family="Monospace" font-size="14">0x80001020</text></g><g class="edge"><path fill="none" stroke="#000" d="M224.5-408c30.69 0 18.7 47.12 39.05 58.53"/><path stroke="#000" d="M264.07-352.7 273-347l-10.54 1.11 1.61-6.81z"/></g><g class="node"><path fill="#e8da89" d="M8-220v-42h215v42H8z"/><path fill="none" stroke="#000" d="M8-220v-42h215v42H8z"/><text x="49" y="-244.8" font-family="Monospace" font-size="14">Ref::&lt;dyn Doggo&gt;</text><text x="49" y="-229.8" font-family="Monospace" font-size="14">::new(&amp;reginald)</text><path fill="none" stroke="#000" d="M8-193v-27h120v27H8z"/><text x="14" y="-202.8" font-family="Monospace" font-size="14">data: &amp;???</text><path fill="none" stroke="#000" d="M128-193v-27h95v27h-95z"/><text x="134" y="-202.8" font-family="Monospace" font-size="14">0x7ffff010</text><path fill="none" stroke="#000" d="M8-166v-27h120v27H8z"/><text x="14" y="-175.8" font-family="Monospace" font-size="14">meta: &amp;Vtable</text><path fill="none" stroke="#000" d="M128-166v-27h95v27h-95z"/><text x="134" y="-175.8" font-family="Monospace" font-size="14">0xB0001034</text></g><g class="edge"><path fill="none" stroke="#000" d="M224.5-206c22.52 0 23.28-24.21 38.99-31.77"/><path stroke="#000" d="M262.49-241.35 273-240l-9.05 5.5-1.46-6.85z"/></g><g class="node"><path fill="#8996e8" d="M275-145v-42h200v42H275z"/><path fill="none" stroke="#000" d="M275-145v-42h200v42H275z"/><text x="288" y="-169.8" font-family="Monospace" font-size="14">&lt;Woofer as dyn Doggo&gt;</text><text x="317" y="-154.8" font-family="Monospace" font-size="14">tinydyn vtable</text><path fill="none" stroke="#000" d="M275-118v-27h92v27h-92z"/><text x="281" y="-127.8" font-family="Monospace" font-size="14">wag: fn</text><path fill="none" stroke="#000" d="M367-118v-27h108v27H367z"/><text x="386" y="-127.8" font-family="Monospace" font-size="14">0x80002080</text><path fill="none" stroke="#000" d="M275-91v-27h92v27h-92z"/><text x="281" y="-100.8" font-family="Monospace" font-size="14">bark: fn</text><path fill="none" stroke="#000" d="M367-91v-27h108v27H367z"/><text x="386" y="-100.8" font-family="Monospace" font-size="14">0x80002020</text></g><g class="edge"><path fill="none" stroke="#000" d="M224.5-179c22.52 0 23.28 24.21 38.99 31.77"/><path stroke="#000" d="M263.95-150.5 273-145l-10.51 1.35 1.46-6.85z"/></g><g class="node"><path fill="#e8da89" d="M8-58v-42h215v42H8z"/><path fill="none" stroke="#000" d="M8-58v-42h215v42H8z"/><text x="49" y="-82.8" font-family="Monospace" font-size="14">Ref::&lt;dyn Doggo&gt;</text><text x="53.5" y="-67.8" font-family="Monospace" font-size="14">::new(&amp;chester)</text><path fill="none" stroke="#000" d="M8-31v-27h120v27H8z"/><text x="14" y="-40.8" font-family="Monospace" font-size="14">data: &amp;???</text><path fill="none" stroke="#000" d="M128-31v-27h95v27h-95z"/><text x="134" y="-40.8" font-family="Monospace" font-size="14">0x7ffff010</text><path fill="none" stroke="#000" d="M8-4v-27h120v27H8z"/><text x="14" y="-13.8" font-family="Monospace" font-size="14">meta: &amp;Vtable</text><path fill="none" stroke="#000" d="M128-4v-27h95v27h-95z"/><text x="134" y="-13.8" font-family="Monospace" font-size="14">0xB0001034</text></g><g class="edge"><path fill="none" stroke="#000" d="M224.5-44c18.01 0 24.8 3.96 38.6 5.45"/><path stroke="#000" d="m263.19-42 9.81 4-10.16 2.99.35-6.99z"/></g><g class="edge"><path fill="none" stroke="#000" d="M224.5-17c56.83 0-2.21-111.1 38.78-126.29"/><path stroke="#000" d="M262.57-146.88 273-145l-9.32 5.03-1.11-6.91z"/></g></g></svg>