<svg xmlns="http://www.w3.org/2000/svg" width="476pt" height="368pt" viewBox="0 0 476 368"><g class="graph" transform="translate(4 364)"><path fill="#fff" d="M-4 4v-368h476V4H-4z"/><g class="node"><path fill="#94d4ae" d="M260-44v-27h200v27H260z"/><path fill="none" stroke="#000" d="M260-44v-27h200v27H260z"/><text x="293.5" y="-53.8" font-family="Monospace" font-size="14">reginald: Woofer</text><path fill="none" stroke="#000" d="M260-17v-27h145v27H260z"/><text x="266" y="-26.8" font-family="Monospace" font-size="14">woof_freq: u16</text><path fill="none" stroke="#000" d="M405-17v-27h55v27h-55z"/><text x="429" y="-26.8" font-family="Monospace" font-size="14">343</text></g><g class="node"><path fill="#94d4ae" d="M260-166v-27h200v27H260z"/><path fill="none" stroke="#000" d="M260-166v-27h200v27H260z"/><text x="298" y="-175.8" font-family="Monospace" font-size="14">chester: Woofer</text><path fill="none" stroke="#000" d="M260-139v-27h145v27H260z"/><text x="266" y="-148.8" font-family="Monospace" font-size="14">woof_freq: u16</text><path fill="none" stroke="#000" d="M405-139v-27h55v27h-55z"/><text x="429" y="-148.8" font-family="Monospace" font-size="14">200</text></g><g class="node"><path fill="#94d4ae" d="M260-300v-27h200v27H260z"/><path fill="none" stroke="#000" d="M260-300v-27h200v27H260z"/><text x="306" y="-309.8" font-family="Monospace" font-size="14">bluey: Pupper</text><path fill="none" stroke="#000" d="M260-273v-27h100v27H260z"/><text x="266" y="-282.8" font-family="Monospace" font-size="14">age: u32</text><path fill="none" stroke="#000" d="M360-273v-27h100v27H360z"/><text x="445" y="-282.8" font-family="Monospace" font-size="14">7</text><path fill="none" stroke="#000" d="M260-219v-54h100v54H260z"/><text x="266" y="-242.3" font-family="Monospace" font-size="14">name: &amp;str</text><path fill="none" stroke="#000" d="M360-246v-27h100v27H360z"/><text x="371" y="-255.8" font-family="Monospace" font-size="14">0xB0003000</text><path fill="none" stroke="#000" d="M360-219v-27h100v27H360z"/><text x="445" y="-228.8" font-family="Monospace" font-size="14">5</text></g><g class="node"><path fill="#e8da89" d="M8-314v-42h200v42H8z"/><path fill="none" stroke="#000" d="M8-314v-42h200v42H8z"/><text x="41.5" y="-338.8" font-family="Monospace" font-size="14">Ref::&lt;dyn Doggo&gt;</text><text x="54" y="-323.8" font-family="Monospace" font-size="14">::new(&amp;bluey)</text><path fill="none" stroke="#000" d="M8-287v-27h100v27H8z"/><text x="14" y="-296.8" font-family="Monospace" font-size="14">data: &amp;???</text><path fill="none" stroke="#000" d="M108-287v-27h100v27H108z"/><text x="119" y="-296.8" font-family="Monospace" font-size="14">0x7ffff000</text><path fill="none" stroke="#000" d="M8-260v-27h100v27H8z"/><text x="14" y="-269.8" font-family="Monospace" font-size="14">wag: fn</text><path fill="none" stroke="#000" d="M108-260v-27h100v27H108z"/><text x="119" y="-269.8" font-family="Monospace" font-size="14">0x80001000</text></g><g class="edge"><path fill="none" stroke="#000" d="M209-300h39.04"/><path stroke="#000" d="m248-303.5 10 3.5-10 3.5v-7z"/></g><g class="node"><path fill="#e8da89" d="M8-58v-42h200v42H8z"/><path fill="none" stroke="#000" d="M8-58v-42h200v42H8z"/><text x="41.5" y="-82.8" font-family="Monospace" font-size="14">Ref::&lt;dyn Doggo&gt;</text><text x="41.5" y="-67.8" font-family="Monospace" font-size="14">::new(&amp;reginald)</text><path fill="none" stroke="#000" d="M8-31v-27h100v27H8z"/><text x="14" y="-40.8" font-family="Monospace" font-size="14">data: &amp;???</text><path fill="none" stroke="#000" d="M108-31v-27h100v27H108z"/><text x="119" y="-40.8" font-family="Monospace" font-size="14">0x7ffff010</text><path fill="none" stroke="#000" d="M8-4v-27h100v27H8z"/><text x="14" y="-13.8" font-family="Monospace" font-size="14">wag: fn</text><path fill="none" stroke="#000" d="M108-4v-27h100v27H108z"/><text x="119" y="-13.8" font-family="Monospace" font-size="14">0x80002080</text></g><g class="edge"><path fill="none" stroke="#000" d="M209-44h39.04"/><path stroke="#000" d="m248-47.5 10 3.5-10 3.5v-7z"/></g><g class="node"><path fill="#e8da89" d="M8-180v-42h200v42H8z"/><path fill="none" stroke="#000" d="M8-180v-42h200v42H8z"/><text x="41.5" y="-204.8" font-family="Monospace" font-size="14">Ref::&lt;dyn Doggo&gt;</text><text x="46" y="-189.8" font-family="Monospace" font-size="14">::new(&amp;chester)</text><path fill="none" stroke="#000" d="M8-153v-27h100v27H8z"/><text x="14" y="-162.8" font-family="Monospace" font-size="14">data: &amp;???</text><path fill="none" stroke="#000" d="M108-153v-27h100v27H108z"/><text x="119" y="-162.8" font-family="Monospace" font-size="14">0x7ffff010</text><path fill="none" stroke="#000" d="M8-126v-27h100v27H8z"/><text x="14" y="-135.8" font-family="Monospace" font-size="14">wag: fn</text><path fill="none" stroke="#000" d="M108-126v-27h100v27H108z"/><text x="119" y="-135.8" font-family="Monospace" font-size="14">0x80002080</text></g><g class="edge"><path fill="none" stroke="#000" d="M209-166h39.04"/><path stroke="#000" d="m248-169.5 10 3.5-10 3.5v-7z"/></g></g></svg>