<?xml version="1.0" encoding="UTF-8" standalone="no"?>
<!DOCTYPE svg PUBLIC "-//W3C//DTD SVG 1.1//EN"
 "http://www.w3.org/Graphics/SVG/1.1/DTD/svg11.dtd">
<!-- Generated by graphviz version 8.0.2 (20230410.1723)
 -->
<!-- Title: G Pages: 1 -->
<svg width="491pt" height="535pt"
 viewBox="0.00 0.00 491.00 535.00" xmlns="http://www.w3.org/2000/svg" xmlns:xlink="http://www.w3.org/1999/xlink">
<g id="page0,1_graph0" class="graph" transform="scale(1 1) rotate(0) translate(4 531)">
<title>G</title>
<polygon fill="white" stroke="none" points="-4,4 -4,-531 487,-531 487,4 -4,4"/>
<!-- woofer -->
<g id="node1" class="node">
<title>woofer</title>
<polygon fill="#94d4ae" stroke="none" points="275,-240 275,-267 475,-267 475,-240 275,-240"/>
<polygon fill="none" stroke="black" points="275,-240 275,-267 475,-267 475,-240 275,-240"/>
<text text-anchor="start" x="308.5" y="-249.8" font-family="Monospace" font-size="14.00">reginald: Woofer</text>
<polygon fill="none" stroke="black" points="275,-213 275,-240 420,-240 420,-213 275,-213"/>
<text text-anchor="start" x="281" y="-222.8" font-family="Monospace" font-size="14.00">woof_freq: u16</text>
<polygon fill="none" stroke="black" points="420,-213 420,-240 475,-240 475,-213 420,-213"/>
<text text-anchor="start" x="444" y="-222.8" font-family="Monospace" font-size="14.00">343</text>
</g>
<!-- woofer2 -->
<g id="node2" class="node">
<title>woofer2</title>
<polygon fill="#94d4ae" stroke="none" points="275,-38 275,-65 475,-65 475,-38 275,-38"/>
<polygon fill="none" stroke="black" points="275,-38 275,-65 475,-65 475,-38 275,-38"/>
<text text-anchor="start" x="313" y="-47.8" font-family="Monospace" font-size="14.00">chester: Woofer</text>
<polygon fill="none" stroke="black" points="275,-11 275,-38 420,-38 420,-11 275,-11"/>
<text text-anchor="start" x="281" y="-20.8" font-family="Monospace" font-size="14.00">woof_freq: u16</text>
<polygon fill="none" stroke="black" points="420,-11 420,-38 475,-38 475,-11 420,-11"/>
<text text-anchor="start" x="444" y="-20.8" font-family="Monospace" font-size="14.00">200</text>
</g>
<!-- pupper -->
<g id="node3" class="node">
<title>pupper</title>
<polygon fill="#94d4ae" stroke="none" points="275,-496 275,-523 475,-523 475,-496 275,-496"/>
<polygon fill="none" stroke="black" points="275,-496 275,-523 475,-523 475,-496 275,-496"/>
<text text-anchor="start" x="321" y="-505.8" font-family="Monospace" font-size="14.00">bluey: Pupper</text>
<polygon fill="none" stroke="black" points="275,-469 275,-496 375,-496 375,-469 275,-469"/>
<text text-anchor="start" x="281" y="-478.8" font-family="Monospace" font-size="14.00">age: u32</text>
<polygon fill="none" stroke="black" points="375,-469 375,-496 475,-496 475,-469 375,-469"/>
<text text-anchor="start" x="460" y="-478.8" font-family="Monospace" font-size="14.00">7</text>
<polygon fill="none" stroke="black" points="275,-415 275,-469 375,-469 375,-415 275,-415"/>
<text text-anchor="start" x="281" y="-438.3" font-family="Monospace" font-size="14.00">name: &amp;str</text>
<polygon fill="none" stroke="black" points="375,-442 375,-469 475,-469 475,-442 375,-442"/>
<text text-anchor="start" x="386" y="-451.8" font-family="Monospace" font-size="14.00">0xB0003000</text>
<polygon fill="none" stroke="black" points="375,-415 375,-442 475,-442 475,-415 375,-415"/>
<text text-anchor="start" x="460" y="-424.8" font-family="Monospace" font-size="14.00">5</text>
</g>
<!-- pupper_ref -->
<g id="node4" class="node">
<title>pupper_ref</title>
<polygon fill="#e8da89" stroke="none" points="8,-449 8,-491 223,-491 223,-449 8,-449"/>
<polygon fill="none" stroke="black" points="8,-449 8,-491 223,-491 223,-449 8,-449"/>
<text text-anchor="start" x="49" y="-473.8" font-family="Monospace" font-size="14.00">Ref::&lt;dyn Doggo&gt;</text>
<text text-anchor="start" x="61.5" y="-458.8" font-family="Monospace" font-size="14.00">::new(&amp;bluey)</text>
<polygon fill="none" stroke="black" points="8,-422 8,-449 128,-449 128,-422 8,-422"/>
<text text-anchor="start" x="14" y="-431.8" font-family="Monospace" font-size="14.00">data: &amp;???</text>
<polygon fill="none" stroke="black" points="128,-422 128,-449 223,-449 223,-422 128,-422"/>
<text text-anchor="start" x="134" y="-431.8" font-family="Monospace" font-size="14.00">0x7ffff000</text>
<polygon fill="none" stroke="black" points="8,-395 8,-422 128,-422 128,-395 8,-395"/>
<text text-anchor="start" x="14" y="-404.8" font-family="Monospace" font-size="14.00">meta: &amp;Vtable</text>
<polygon fill="none" stroke="black" points="128,-395 128,-422 223,-422 223,-395 128,-395"/>
<text text-anchor="start" x="134" y="-404.8" font-family="Monospace" font-size="14.00">0xB0001020</text>
</g>
<!-- pupper_ref&#45;&gt;pupper -->
<g id="edge3" class="edge">
<title>pupper_ref:data&#45;&gt;pupper:head</title>
<path fill="none" stroke="black" d="M224.5,-435C255.19,-435 243.2,-482.12 263.55,-493.53"/>
<polygon fill="black" stroke="black" points="262.46,-497.11 273,-496 264.07,-490.3 262.46,-497.11"/>
</g>
<!-- pupper_vtable -->
<g id="node7" class="node">
<title>pupper_vtable</title>
<polygon fill="#8996e8" stroke="none" points="275,-347 275,-389 475,-389 475,-347 275,-347"/>
<polygon fill="none" stroke="black" points="275,-347 275,-389 475,-389 475,-347 275,-347"/>
<text text-anchor="start" x="288" y="-371.8" font-family="Monospace" font-size="14.00">&lt;Pupper as dyn Doggo&gt;</text>
<text text-anchor="start" x="317" y="-356.8" font-family="Monospace" font-size="14.00">tinydyn vtable</text>
<polygon fill="none" stroke="black" points="275,-320 275,-347 367,-347 367,-320 275,-320"/>
<text text-anchor="start" x="281" y="-329.8" font-family="Monospace" font-size="14.00">wag: fn</text>
<polygon fill="none" stroke="black" points="367,-320 367,-347 475,-347 475,-320 367,-320"/>
<text text-anchor="start" x="386" y="-329.8" font-family="Monospace" font-size="14.00">0x80001000</text>
<polygon fill="none" stroke="black" points="275,-293 275,-320 367,-320 367,-293 275,-293"/>
<text text-anchor="start" x="281" y="-302.8" font-family="Monospace" font-size="14.00">bark: fn</text>
<polygon fill="none" stroke="black" points="367,-293 367,-320 475,-320 475,-293 367,-293"/>
<text text-anchor="start" x="386" y="-302.8" font-family="Monospace" font-size="14.00">0x80001020</text>
</g>
<!-- pupper_ref&#45;&gt;pupper_vtable -->
<g id="edge6" class="edge">
<title>pupper_ref:meta&#45;&gt;pupper_vtable:head</title>
<path fill="none" stroke="black" d="M224.5,-408C255.19,-408 243.2,-360.88 263.55,-349.47"/>
<polygon fill="black" stroke="black" points="264.07,-352.7 273,-347 262.46,-345.89 264.07,-352.7"/>
</g>
<!-- woofer_ref -->
<g id="node5" class="node">
<title>woofer_ref</title>
<polygon fill="#e8da89" stroke="none" points="8,-220 8,-262 223,-262 223,-220 8,-220"/>
<polygon fill="none" stroke="black" points="8,-220 8,-262 223,-262 223,-220 8,-220"/>
<text text-anchor="start" x="49" y="-244.8" font-family="Monospace" font-size="14.00">Ref::&lt;dyn Doggo&gt;</text>
<text text-anchor="start" x="49" y="-229.8" font-family="Monospace" font-size="14.00">::new(&amp;reginald)</text>
<polygon fill="none" stroke="black" points="8,-193 8,-220 128,-220 128,-193 8,-193"/>
<text text-anchor="start" x="14" y="-202.8" font-family="Monospace" font-size="14.00">data: &amp;???</text>
<polygon fill="none" stroke="black" points="128,-193 128,-220 223,-220 223,-193 128,-193"/>
<text text-anchor="start" x="134" y="-202.8" font-family="Monospace" font-size="14.00">0x7ffff010</text>
<polygon fill="none" stroke="black" points="8,-166 8,-193 128,-193 128,-166 8,-166"/>
<text text-anchor="start" x="14" y="-175.8" font-family="Monospace" font-size="14.00">meta: &amp;Vtable</text>
<polygon fill="none" stroke="black" points="128,-166 128,-193 223,-193 223,-166 128,-166"/>
<text text-anchor="start" x="134" y="-175.8" font-family="Monospace" font-size="14.00">0xB0001034</text>
</g>
<!-- woofer_ref&#45;&gt;woofer -->
<g id="edge1" class="edge">
<title>woofer_ref:data&#45;&gt;woofer:head</title>
<path fill="none" stroke="black" d="M224.5,-206C247.02,-206 247.78,-230.21 263.49,-237.77"/>
<polygon fill="black" stroke="black" points="262.49,-241.35 273,-240 263.95,-234.5 262.49,-241.35"/>
</g>
<!-- woofer_vtable -->
<g id="node8" class="node">
<title>woofer_vtable</title>
<polygon fill="#8996e8" stroke="none" points="275,-145 275,-187 475,-187 475,-145 275,-145"/>
<polygon fill="none" stroke="black" points="275,-145 275,-187 475,-187 475,-145 275,-145"/>
<text text-anchor="start" x="288" y="-169.8" font-family="Monospace" font-size="14.00">&lt;Woofer as dyn Doggo&gt;</text>
<text text-anchor="start" x="317" y="-154.8" font-family="Monospace" font-size="14.00">tinydyn vtable</text>
<polygon fill="none" stroke="black" points="275,-118 275,-145 367,-145 367,-118 275,-118"/>
<text text-anchor="start" x="281" y="-127.8" font-family="Monospace" font-size="14.00">wag: fn</text>
<polygon fill="none" stroke="black" points="367,-118 367,-145 475,-145 475,-118 367,-118"/>
<text text-anchor="start" x="386" y="-127.8" font-family="Monospace" font-size="14.00">0x80002080</text>
<polygon fill="none" stroke="black" points="275,-91 275,-118 367,-118 367,-91 275,-91"/>
<text text-anchor="start" x="281" y="-100.8" font-family="Monospace" font-size="14.00">bark: fn</text>
<polygon fill="none" stroke="black" points="367,-91 367,-118 475,-118 475,-91 367,-91"/>
<text text-anchor="start" x="386" y="-100.8" font-family="Monospace" font-size="14.00">0x80002020</text>
</g>
<!-- woofer_ref&#45;&gt;woofer_vtable -->
<g id="edge4" class="edge">
<title>woofer_ref:meta&#45;&gt;woofer_vtable:head</title>
<path fill="none" stroke="black" d="M224.5,-179C247.02,-179 247.78,-154.79 263.49,-147.23"/>
<polygon fill="black" stroke="black" points="263.95,-150.5 273,-145 262.49,-143.65 263.95,-150.5"/>
</g>
<!-- woofer2_ref -->
<g id="node6" class="node">
<title>woofer2_ref</title>
<polygon fill="#e8da89" stroke="none" points="8,-58 8,-100 223,-100 223,-58 8,-58"/>
<polygon fill="none" stroke="black" points="8,-58 8,-100 223,-100 223,-58 8,-58"/>
<text text-anchor="start" x="49" y="-82.8" font-family="Monospace" font-size="14.00">Ref::&lt;dyn Doggo&gt;</text>
<text text-anchor="start" x="53.5" y="-67.8" font-family="Monospace" font-size="14.00">::new(&amp;chester)</text>
<polygon fill="none" stroke="black" points="8,-31 8,-58 128,-58 128,-31 8,-31"/>
<text text-anchor="start" x="14" y="-40.8" font-family="Monospace" font-size="14.00">data: &amp;???</text>
<polygon fill="none" stroke="black" points="128,-31 128,-58 223,-58 223,-31 128,-31"/>
<text text-anchor="start" x="134" y="-40.8" font-family="Monospace" font-size="14.00">0x7ffff010</text>
<polygon fill="none" stroke="black" points="8,-4 8,-31 128,-31 128,-4 8,-4"/>
<text text-anchor="start" x="14" y="-13.8" font-family="Monospace" font-size="14.00">meta: &amp;Vtable</text>
<polygon fill="none" stroke="black" points="128,-4 128,-31 223,-31 223,-4 128,-4"/>
<text text-anchor="start" x="134" y="-13.8" font-family="Monospace" font-size="14.00">0xB0001034</text>
</g>
<!-- woofer2_ref&#45;&gt;woofer2 -->
<g id="edge2" class="edge">
<title>woofer2_ref:data&#45;&gt;woofer2:head</title>
<path fill="none" stroke="black" d="M224.5,-44C242.51,-44 249.3,-40.04 263.1,-38.55"/>
<polygon fill="black" stroke="black" points="263.19,-42 273,-38 262.84,-35.01 263.19,-42"/>
</g>
<!-- woofer2_ref&#45;&gt;woofer_vtable -->
<g id="edge5" class="edge">
<title>woofer2_ref:meta&#45;&gt;woofer_vtable:head</title>
<path fill="none" stroke="black" d="M224.5,-17C281.33,-17 222.29,-128.1 263.28,-143.29"/>
<polygon fill="black" stroke="black" points="262.57,-146.88 273,-145 263.68,-139.97 262.57,-146.88"/>
</g>
</g>
</svg>
