<?xml version="1.0" encoding="UTF-8" standalone="no"?>
<!DOCTYPE svg PUBLIC "-//W3C//DTD SVG 1.1//EN"
 "http://www.w3.org/Graphics/SVG/1.1/DTD/svg11.dtd">
<!-- Generated by graphviz version 8.0.2 (20230410.1723)
 -->
<!-- Title: G Pages: 1 -->
<svg width="476pt" height="368pt"
 viewBox="0.00 0.00 476.00 368.00" xmlns="http://www.w3.org/2000/svg" xmlns:xlink="http://www.w3.org/1999/xlink">
<g id="page0,1_graph0" class="graph" transform="scale(1 1) rotate(0) translate(4 364)">
<title>G</title>
<polygon fill="white" stroke="none" points="-4,4 -4,-364 472,-364 472,4 -4,4"/>
<!-- woofer -->
<g id="node1" class="node">
<title>woofer</title>
<polygon fill="#94d4ae" stroke="none" points="260,-44 260,-71 460,-71 460,-44 260,-44"/>
<polygon fill="none" stroke="black" points="260,-44 260,-71 460,-71 460,-44 260,-44"/>
<text text-anchor="start" x="293.5" y="-53.8" font-family="Monospace" font-size="14.00">reginald: Woofer</text>
<polygon fill="none" stroke="black" points="260,-17 260,-44 405,-44 405,-17 260,-17"/>
<text text-anchor="start" x="266" y="-26.8" font-family="Monospace" font-size="14.00">woof_freq: u16</text>
<polygon fill="none" stroke="black" points="405,-17 405,-44 460,-44 460,-17 405,-17"/>
<text text-anchor="start" x="429" y="-26.8" font-family="Monospace" font-size="14.00">343</text>
</g>
<!-- woofer2 -->
<g id="node2" class="node">
<title>woofer2</title>
<polygon fill="#94d4ae" stroke="none" points="260,-166 260,-193 460,-193 460,-166 260,-166"/>
<polygon fill="none" stroke="black" points="260,-166 260,-193 460,-193 460,-166 260,-166"/>
<text text-anchor="start" x="298" y="-175.8" font-family="Monospace" font-size="14.00">chester: Woofer</text>
<polygon fill="none" stroke="black" points="260,-139 260,-166 405,-166 405,-139 260,-139"/>
<text text-anchor="start" x="266" y="-148.8" font-family="Monospace" font-size="14.00">woof_freq: u16</text>
<polygon fill="none" stroke="black" points="405,-139 405,-166 460,-166 460,-139 405,-139"/>
<text text-anchor="start" x="429" y="-148.8" font-family="Monospace" font-size="14.00">200</text>
</g>
<!-- pupper -->
<g id="node3" class="node">
<title>pupper</title>
<polygon fill="#94d4ae" stroke="none" points="260,-300 260,-327 460,-327 460,-300 260,-300"/>
<polygon fill="none" stroke="black" points="260,-300 260,-327 460,-327 460,-300 260,-300"/>
<text text-anchor="start" x="306" y="-309.8" font-family="Monospace" font-size="14.00">bluey: Pupper</text>
<polygon fill="none" stroke="black" points="260,-273 260,-300 360,-300 360,-273 260,-273"/>
<text text-anchor="start" x="266" y="-282.8" font-family="Monospace" font-size="14.00">age: u32</text>
<polygon fill="none" stroke="black" points="360,-273 360,-300 460,-300 460,-273 360,-273"/>
<text text-anchor="start" x="445" y="-282.8" font-family="Monospace" font-size="14.00">7</text>
<polygon fill="none" stroke="black" points="260,-219 260,-273 360,-273 360,-219 260,-219"/>
<text text-anchor="start" x="266" y="-242.3" font-family="Monospace" font-size="14.00">name: &amp;str</text>
<polygon fill="none" stroke="black" points="360,-246 360,-273 460,-273 460,-246 360,-246"/>
<text text-anchor="start" x="371" y="-255.8" font-family="Monospace" font-size="14.00">0xB0003000</text>
<polygon fill="none" stroke="black" points="360,-219 360,-246 460,-246 460,-219 360,-219"/>
<text text-anchor="start" x="445" y="-228.8" font-family="Monospace" font-size="14.00">5</text>
</g>
<!-- pupper_ref -->
<g id="node4" class="node">
<title>pupper_ref</title>
<polygon fill="#e8da89" stroke="none" points="8,-314 8,-356 208,-356 208,-314 8,-314"/>
<polygon fill="none" stroke="black" points="8,-314 8,-356 208,-356 208,-314 8,-314"/>
<text text-anchor="start" x="41.5" y="-338.8" font-family="Monospace" font-size="14.00">Ref::&lt;dyn Doggo&gt;</text>
<text text-anchor="start" x="54" y="-323.8" font-family="Monospace" font-size="14.00">::new(&amp;bluey)</text>
<polygon fill="none" stroke="black" points="8,-287 8,-314 108,-314 108,-287 8,-287"/>
<text text-anchor="start" x="14" y="-296.8" font-family="Monospace" font-size="14.00">data: &amp;???</text>
<polygon fill="none" stroke="black" points="108,-287 108,-314 208,-314 208,-287 108,-287"/>
<text text-anchor="start" x="119" y="-296.8" font-family="Monospace" font-size="14.00">0x7ffff000</text>
<polygon fill="none" stroke="black" points="8,-260 8,-287 108,-287 108,-260 8,-260"/>
<text text-anchor="start" x="14" y="-269.8" font-family="Monospace" font-size="14.00">wag: fn</text>
<polygon fill="none" stroke="black" points="108,-260 108,-287 208,-287 208,-260 108,-260"/>
<text text-anchor="start" x="119" y="-269.8" font-family="Monospace" font-size="14.00">0x80001000</text>
</g>
<!-- pupper_ref&#45;&gt;pupper -->
<g id="edge3" class="edge">
<title>pupper_ref:data&#45;&gt;pupper:head</title>
<path fill="none" stroke="black" d="M209,-300C227.06,-300 234.11,-300 248.04,-300"/>
<polygon fill="black" stroke="black" points="248,-303.5 258,-300 248,-296.5 248,-303.5"/>
</g>
<!-- woofer_ref -->
<g id="node5" class="node">
<title>woofer_ref</title>
<polygon fill="#e8da89" stroke="none" points="8,-58 8,-100 208,-100 208,-58 8,-58"/>
<polygon fill="none" stroke="black" points="8,-58 8,-100 208,-100 208,-58 8,-58"/>
<text text-anchor="start" x="41.5" y="-82.8" font-family="Monospace" font-size="14.00">Ref::&lt;dyn Doggo&gt;</text>
<text text-anchor="start" x="41.5" y="-67.8" font-family="Monospace" font-size="14.00">::new(&amp;reginald)</text>
<polygon fill="none" stroke="black" points="8,-31 8,-58 108,-58 108,-31 8,-31"/>
<text text-anchor="start" x="14" y="-40.8" font-family="Monospace" font-size="14.00">data: &amp;???</text>
<polygon fill="none" stroke="black" points="108,-31 108,-58 208,-58 208,-31 108,-31"/>
<text text-anchor="start" x="119" y="-40.8" font-family="Monospace" font-size="14.00">0x7ffff010</text>
<polygon fill="none" stroke="black" points="8,-4 8,-31 108,-31 108,-4 8,-4"/>
<text text-anchor="start" x="14" y="-13.8" font-family="Monospace" font-size="14.00">wag: fn</text>
<polygon fill="none" stroke="black" points="108,-4 108,-31 208,-31 208,-4 108,-4"/>
<text text-anchor="start" x="119" y="-13.8" font-family="Monospace" font-size="14.00">0x80002080</text>
</g>
<!-- woofer_ref&#45;&gt;woofer -->
<g id="edge1" class="edge">
<title>woofer_ref:data&#45;&gt;woofer:head</title>
<path fill="none" stroke="black" d="M209,-44C227.06,-44 234.11,-44 248.04,-44"/>
<polygon fill="black" stroke="black" points="248,-47.5 258,-44 248,-40.5 248,-47.5"/>
</g>
<!-- woofer2_ref -->
<g id="node6" class="node">
<title>woofer2_ref</title>
<polygon fill="#e8da89" stroke="none" points="8,-180 8,-222 208,-222 208,-180 8,-180"/>
<polygon fill="none" stroke="black" points="8,-180 8,-222 208,-222 208,-180 8,-180"/>
<text text-anchor="start" x="41.5" y="-204.8" font-family="Monospace" font-size="14.00">Ref::&lt;dyn Doggo&gt;</text>
<text text-anchor="start" x="46" y="-189.8" font-family="Monospace" font-size="14.00">::new(&amp;chester)</text>
<polygon fill="none" stroke="black" points="8,-153 8,-180 108,-180 108,-153 8,-153"/>
<text text-anchor="start" x="14" y="-162.8" font-family="Monospace" font-size="14.00">data: &amp;???</text>
<polygon fill="none" stroke="black" points="108,-153 108,-180 208,-180 208,-153 108,-153"/>
<text text-anchor="start" x="119" y="-162.8" font-family="Monospace" font-size="14.00">0x7ffff010</text>
<polygon fill="none" stroke="black" points="8,-126 8,-153 108,-153 108,-126 8,-126"/>
<text text-anchor="start" x="14" y="-135.8" font-family="Monospace" font-size="14.00">wag: fn</text>
<polygon fill="none" stroke="black" points="108,-126 108,-153 208,-153 208,-126 108,-126"/>
<text text-anchor="start" x="119" y="-135.8" font-family="Monospace" font-size="14.00">0x80002080</text>
</g>
<!-- woofer2_ref&#45;&gt;woofer2 -->
<g id="edge2" class="edge">
<title>woofer2_ref:data&#45;&gt;woofer2:head</title>
<path fill="none" stroke="black" d="M209,-166C227.06,-166 234.11,-166 248.04,-166"/>
<polygon fill="black" stroke="black" points="248,-169.5 258,-166 248,-162.5 248,-169.5"/>
</g>
</g>
</svg>
